<svg width="96" height="96" viewBox="0 0 96 96" fill="none" xmlns="http://www.w3.org/2000/svg" role="img" aria-labelledby="title desc">
  <title id="title">Fitaru mark</title>
  <desc id="desc">Rounded teal app mark with an F-shaped path, progress line, and leaf accent.</desc>
  <rect width="96" height="96" rx="28" fill="url(#bg)"/>
  <path d="M29 67V29C29 25.6863 31.6863 23 35 23H69" stroke="white" stroke-width="9" stroke-linecap="round" stroke-linejoin="round"/>
  <path d="M34 45H61" stroke="white" stroke-width="9" stroke-linecap="round"/>
  <path d="M35 67C43 56.5 54.5 54 67 62" stroke="#D8FFF0" stroke-width="6" stroke-linecap="round"/>
  <path d="M66.6 31.8C74 25.4 82.1 26.8 84.5 28.2C84.1 35.7 79.2 42.2 70.8 42.2C65.4 42.2 62 38.8 62 38.8C62 38.8 63.1 34.9 66.6 31.8Z" fill="url(#leaf)"/>
  <circle cx="70" cy="38" r="3.2" fill="white" fill-opacity="0.9"/>
  <defs>
    <linearGradient id="bg" x1="14" y1="10" x2="88" y2="88" gradientUnits="userSpaceOnUse">
      <stop stop-color="#1BAE8C"/>
      <stop offset="1" stop-color="#0E6F60"/>
    </linearGradient>
    <linearGradient id="leaf" x1="64" y1="28" x2="83" y2="43" gradientUnits="userSpaceOnUse">
      <stop stop-color="#EAFDF4"/>
      <stop offset="1" stop-color="#9BE7C7"/>
    </linearGradient>
  </defs>
</svg>
