<svg width="512" height="640" viewBox="0 0 512 640" fill="none" xmlns="http://www.w3.org/2000/svg" role="img" aria-labelledby="title desc">
  <title id="title">Fitaru stacked logo</title>
  <desc id="desc">Fitaru app mark with the Fitaru wordmark below it.</desc>
  <rect x="128" y="56" width="256" height="256" rx="74.6667" fill="url(#bg)"/>
  <path d="M205.333 234.667V133.333C205.333 124.497 212.497 117.333 221.333 117.333H312" stroke="white" stroke-width="24" stroke-linecap="round" stroke-linejoin="round"/>
  <path d="M218.667 176H290.667" stroke="white" stroke-width="24" stroke-linecap="round"/>
  <path d="M221.333 234.667C242.667 206.667 273.333 200 306.667 221.333" stroke="#D8FFF0" stroke-width="16" stroke-linecap="round"/>
  <path d="M305.6 140.8C325.333 123.733 346.933 127.467 353.333 131.2C352.267 151.2 339.2 168.533 316.8 168.533C302.4 168.533 293.333 159.467 293.333 159.467C293.333 159.467 296.267 149.067 305.6 140.8Z" fill="url(#leaf)"/>
  <circle cx="314.667" cy="157.333" r="8.53333" fill="white" fill-opacity="0.9"/>
  <text x="256" y="432" fill="#F7FFFC" font-family="Plus Jakarta Sans, Inter, Arial, sans-serif" font-size="72" font-weight="800" text-anchor="middle">Fitaru</text>
  <path d="M162 470H350" stroke="#1BAE8C" stroke-width="10" stroke-linecap="round"/>
  <text x="256" y="526" fill="#9BE7C7" font-family="Plus Jakarta Sans, Inter, Arial, sans-serif" font-size="24" font-weight="700" text-anchor="middle">Diet santai, progres tetap jalan.</text>
  <defs>
    <linearGradient id="bg" x1="165.333" y1="82.6667" x2="362.667" y2="290.667" gradientUnits="userSpaceOnUse">
      <stop stop-color="#1BAE8C"/>
      <stop offset="1" stop-color="#0E6F60"/>
    </linearGradient>
    <linearGradient id="leaf" x1="298.667" y1="130.667" x2="349.333" y2="170.667" gradientUnits="userSpaceOnUse">
      <stop stop-color="#EAFDF4"/>
      <stop offset="1" stop-color="#9BE7C7"/>
    </linearGradient>
  </defs>
</svg>
